# xmcd CD database file
#
# Track frame offsets:
#	150
#	16061
#	34213
#	53241
#	77376
#	98830
#	115205
#	137941
#	149590
#	175130
#	197333
#	221083
#	240736
#	252696
#	267544
#
# Disc length: 3731 seconds
#
# Revision: 0
# Processed by: cddbd v1.5.2PL0 Copyright (c) Steve Scherf et al.
# Submitted via: CDex 1.51
#
DISCID=db0e910f
DTITLE=Various Artist - Salsa Hits - 15 Megahits De La Salsa
DYEAR=1900
DGENRE=Salsa
TTITLE0=Juan José Rodgriguez - Procuro Olvidarte
TTITLE1=Opa Opa - Dime Por Que
TTITLE2=Eddy Mc Lean - Torero
TTITLE3=Panama Connection - Caballo Viejo
TTITLE4=Banda Villa - La Fiesta De Villagrasa
TTITLE5=Panama Connection - La Gota Fría
TTITLE6=Dulce Banda - La Del Moño Colorado
TTITLE7=Celia Cruz - Cha Cha Guere
TTITLE8=Nestor Ceballos - El Elefante
TTITLE9=Eddy Mc Lean - El Tigueron
TTITLE10=Banda Ibanez - El Veñao
TTITLE11=Beny Peregrina - La Carcel Es Pa' Los Pobres
TTITLE12=Celia Cruz - Burundanga
TTITLE13=José Luis Rodriguez - Así
TTITLE14=Lecuona Cuban Boys - El Cumbanchero
EXTD=
EXTT0=
EXTT1=
EXTT2=
EXTT3=
EXTT4=
EXTT5=
EXTT6=
EXTT7=
EXTT8=
EXTT9=
EXTT10=
EXTT11=
EXTT12=
EXTT13=
EXTT14=
PLAYORDER=
